<svg width="52" height="57" viewBox="0 0 52 57" fill="none" xmlns="http://www.w3.org/2000/svg">
<path d="M42.8176 57C42.2725 57 42 56.8789 42 56.6366V40.3634C42 40.1211 42.2725 40 42.8176 40H51.2453C51.7484 40 52 40.1211 52 40.3634V56.6366C52 56.8789 51.7484 57 51.2453 57H42.8176Z" fill="#3D59A5"/>
<path d="M50 35.5C50 37.433 48.433 39 46.5 39C44.567 39 43 37.433 43 35.5C43 33.567 44.567 32 46.5 32C48.433 32 50 33.567 50 35.5Z" fill="#3D59A5"/>
<path d="M1.09216 56.4384C0.364045 56.4336 0.00123308 56.2391 0.00372747 55.8546L0.0275133 52.1889C0.0358873 50.8983 0.459349 49.7615 1.2979 48.7784C2.18864 47.7682 3.3387 46.8694 4.7481 46.0822C6.15749 45.2951 7.69637 44.5911 9.36474 43.9703C11.0851 43.3499 12.8052 42.7707 14.5251 42.2327C16.2449 41.6946 17.8086 41.1693 19.2163 40.6567C20.6241 40.1166 21.7458 39.5747 22.5815 39.0309C23.4692 38.4875 23.9153 37.8725 23.9197 37.1861L23.9232 36.6506C23.9278 35.9367 23.4892 35.4121 22.6072 35.0769C21.7253 34.7142 20.2962 34.5264 18.3199 34.5136C16.3436 34.5008 14.8859 34.711 13.9469 35.1442C13.0079 35.5775 12.5616 36.2337 12.6079 37.1127C12.6576 37.47 12.3184 37.6463 11.5903 37.6415L2.30675 37.5813C1.68264 37.5772 1.31974 37.3964 1.21804 37.0388C1.02159 35.2526 1.62931 33.7737 3.0412 32.6021C4.45327 31.403 6.51339 30.5239 9.22157 29.9649C11.9299 29.3783 15.1564 29.0972 18.901 29.1215C24.57 29.1583 28.8567 29.7902 31.7614 31.0173C34.666 32.2444 36.1101 34.121 36.0937 36.6472C36.0855 37.9103 35.6622 39.0197 34.8239 39.9754C33.9855 40.931 32.8878 41.7751 31.5308 42.5078C30.2258 43.2407 28.7652 43.8903 27.1492 44.4564C25.5852 45.0229 23.9954 45.5618 22.3798 46.0731C20.8163 46.5572 19.3568 47.0558 18.0012 47.5687C16.6978 48.0545 15.6281 48.583 14.7922 49.1543C14.0085 49.6984 13.6144 50.3274 13.6097 51.0413L34.7512 51.1785C35.4273 51.1829 35.7641 51.3773 35.7616 51.7617L35.7335 56.0865C35.7311 56.4709 35.3918 56.6609 34.7156 56.6565L1.09216 56.4384Z" fill="#3D59A5"/>
<path d="M52 0V8.29825L42.0938 15.3376V15.6624L52 22.7017V31L36 31V24.4751L45.8281 24.4751V24.245L36.1016 17.5847V13.4153L45.8828 6.75502V6.52489L36 6.52489V0L52 0Z" fill="#3D59A5"/>
<path d="M1.4529 27C1.25202 27 1.07123 26.9614 0.910527 26.8843C0.79 26.7814 0.729736 26.6657 0.729736 26.5371V0.462858C0.729736 0.334287 0.79 0.231429 0.910527 0.154286C1.07123 0.0514287 1.25202 0 1.4529 0H16.8201C19.9538 0 22.726 0.347143 25.1365 1.04143C27.5471 1.73571 29.4152 2.72572 30.741 4.01143C32.0668 5.29714 32.7297 6.77572 32.7297 8.44714V18.5529C32.7297 20.2243 32.0668 21.7029 30.741 22.9886C29.4152 24.2743 27.5471 25.2643 25.1365 25.9586C22.726 26.6529 19.9538 27 16.8201 27H1.4529ZM10.7335 21.33C10.7335 21.4586 10.8339 21.5229 11.0348 21.5229H17.242C18.849 21.5229 20.1547 21.1629 21.1591 20.4429C22.1635 19.6971 22.6858 18.7071 22.726 17.4729V9.52714C22.726 8.29286 22.2037 7.31571 21.1591 6.59571C20.1547 5.85 18.8289 5.47714 17.1817 5.47714H11.0348C10.8339 5.47714 10.7335 5.54143 10.7335 5.67V21.33Z" fill="#3D59A5"/>
</svg>
